<?xml version="1.0" encoding="UTF-8" standalone="no"?>
<!-- Created with Inkscape (http://www.inkscape.org/) -->

<svg
   width="201.0477mm"
   height="102.70616mm"
   viewBox="0 0 201.0477 102.70616"
   version="1.1"
   id="svg5"
   xml:space="preserve"
   xmlns="http://www.w3.org/2000/svg"
   xmlns:svg="http://www.w3.org/2000/svg"
   xmlns:rdf="http://www.w3.org/1999/02/22-rdf-syntax-ns#"
   xmlns:cc="http://creativecommons.org/ns#"
   xmlns:dc="http://purl.org/dc/elements/1.1/"><title
     id="title1145">Ronin</title><defs
     id="defs2" /><g
     id="g1822"
     style="display:inline"
     transform="translate(-0.31387684,-7.6461117)"><path
       style="font-variation-settings:'wght' 700;fill:none;stroke:#ffffff;stroke-width:3;stroke-linecap:square;stroke-linejoin:miter;stroke-miterlimit:7;stroke-dasharray:none;stroke-opacity:0.991918"
       d="M 10.556199,32.237999 35.277035,27.91055 72.742093,32.490384 66.652961,55.405256 45.288701,61.015098 62.972493,89.246954 35.726284,66.293348 10.397131,101.36149 32.991476,34.955974 Z"
       id="path1808"
       class="UnoptimicedTransforms" /><path
       style="font-variation-settings:'wght' 700;fill:none;stroke:#ffffff;stroke-width:3;stroke-linecap:square;stroke-miterlimit:7;stroke-dasharray:none;stroke-opacity:0.991918"
       d="m 41.709993,36.067236 21.425344,2.631011 -2.916211,10.611859 -24.805898,5.279972 z"
       id="path1810"
       class="UnoptimicedTransforms" /><path
       style="font-variation-settings:'wght' 700;fill:none;stroke:#ffffff;stroke-width:3;stroke-linecap:square;stroke-linejoin:miter;stroke-miterlimit:7;stroke-dasharray:none;stroke-opacity:0.991918"
       d="M 83.025798,32.473276 100.56021,21.906154 118.71219,19.57346 104.33803,73.780882 89.699452,82.628239 69.504855,87.399042 Z"
       id="path1812"
       class="UnoptimicedTransforms" /><path
       style="font-variation-settings:'wght' 700;fill:none;stroke:#ffffff;stroke-width:3;stroke-linecap:square;stroke-linejoin:miter;stroke-miterlimit:7;stroke-dasharray:none;stroke-opacity:0.991918"
       d="m 90.229963,36.970303 11.606567,-6.99093 7.34782,-1.089621 -9.89376,39.935064 -10.979702,6.604289 -8.655693,2.025287 z"
       id="path1814"
       class="UnoptimicedTransforms" /><path
       style="font-variation-settings:'wght' 700;fill:none;stroke:#ffffff;stroke-width:3;stroke-linecap:square;stroke-linejoin:miter;stroke-miterlimit:7;stroke-dasharray:none;stroke-opacity:0.991918"
       d="m 128.70244,17.383758 10.82256,36.92438 9.46676,-38.266495 6.92062,-0.870699 -16.13367,61.827109 -10.18316,-32.115214 -7.94266,30.349933 -7.67662,1.768338 z"
       id="path1816"
       class="UnoptimicedTransforms" /><path
       style="font-variation-settings:'wght' 700;fill:none;stroke:#ffffff;stroke-width:3;stroke-linecap:square;stroke-linejoin:miter;stroke-miterlimit:7;stroke-dasharray:none;stroke-opacity:0.991918"
       d="m 162.94575,14.35937 6.73299,-0.825438 -17.55593,67.055342 -3.06881,-9.853432 z"
       id="path1818"
       class="UnoptimicedTransforms" /><path
       style="font-variation-settings:'wght' 700;fill:none;stroke:#ffffff;stroke-width:3;stroke-linecap:square;stroke-linejoin:miter;stroke-miterlimit:7;stroke-dasharray:none;stroke-opacity:0.991918"
       d="m 192.91818,10.746684 -8.00688,32.141895 -8.64458,-29.367845 -12.13921,51.866313 6.18218,-1.393263 6.26444,-26.030554 8.48296,26.582249 14.29314,-54.5937594 z"
       id="path1820"
       class="UnoptimicedTransforms" /><path
       style="font-variation-settings:'wght' 700;fill:#ffffff;fill-opacity:1;fill-rule:nonzero;stroke:#ffffff;stroke-width:3.77953;stroke-linecap:square;stroke-miterlimit:8;stroke-dasharray:none;stroke-opacity:0.991918"
       d="m 133.05469,108.00781 c -16.89355,3.40057 -34.309727,4.99649 -50.800784,10.0293 -4.179917,3.91216 2.015739,7.04616 5.632813,6.84375 13.187431,2.21748 26.686941,3.23701 39.761721,5.4375 -23.77661,71.08712 -48.326496,141.9371 -72.021487,213.0625 -1.092297,5.398 6.601904,5.74426 7.966797,1.14062 24.162055,-32.08132 47.20471,-65.01712 71.08594,-97.27343 25.4579,20.80322 50.04923,42.68961 75.97461,62.90429 4.57249,1.85769 5.72097,-4.27902 2.79687,-6.77929 -14.85614,-25.04948 -30.73756,-49.4724 -46.08203,-74.22266 26.77762,-7.14176 53.68826,-13.8207 80.33203,-21.44336 4.50441,-4.41197 4.14869,-11.97505 6.59058,-17.63501 5.50825,-20.62599 11.91793,-41.11889 16.19067,-62.01733 -1.44169,-6.47738 -10.0701,-3.63672 -14.77383,-5.25656 -40.90006,-4.77538 -81.7584,-10.10925 -122.6539,-14.79032 z m 23.98828,26.11524 c 28.15721,2.90175 56.32715,6.15142 84.28515,10.56836 -3.77159,14.56453 -7.68173,29.14418 -11.71484,43.58593 -32.99018,7.32994 -66.3027,14.2224 -99.42187,21.38868 8.53756,-25.19841 17.13621,-50.37562 25.57421,-75.60743 l 0.99873,0.0504 z"
       id="path4133"
       transform="scale(0.26458333)" /><path
       style="font-variation-settings:'wght' 700;fill:#ffffff;fill-opacity:1;fill-rule:nonzero;stroke:#ffffff;stroke-width:3.77953;stroke-linecap:square;stroke-miterlimit:8;stroke-dasharray:none;stroke-opacity:0.991918"
       d="m 437.96289,78.222656 c -19.21949,1.875589 -38.46175,4.274322 -57.51172,7.199219 -21.25796,13.424345 -43.76892,25.055595 -63.99609,40.017575 -3.98664,7.3864 -4.25037,16.56104 -6.90854,24.57626 -13.94621,57.53569 -28.71574,114.9346 -42.02115,172.58781 1.83091,6.13231 9.43464,1.21751 13.46574,0.95706 19.40748,-4.96243 39.26718,-8.69803 58.4174,-14.31618 17.29608,-10.80118 35.3687,-20.70312 52.18244,-32.07893 6.07819,-18.14726 10.15664,-37.2116 15.44425,-55.70909 11.71633,-45.16496 24.61919,-90.0464 35.22064,-135.48763 1.01562,-3.317049 0.4591,-8.521526 -4.29297,-7.746094 z m -22.54883,28.513674 c -12.30319,51.84085 -25.02675,103.56264 -38.76367,155.03711 -14.07034,8.85268 -28.27374,17.73675 -42.768,25.74026 -12.08681,2.85643 -24.16563,5.74554 -36.2652,8.54685 13.93179,-52.63872 27.34213,-105.41689 41.47265,-158.00196 15.35637,-8.92046 30.35816,-18.82761 45.93419,-27.13701 10.00862,-1.31597 20.71563,-3.50436 30.39003,-4.18525 z"
       id="path4135"
       transform="scale(0.26458333)" /><path
       style="font-variation-settings:'wght' 700;fill:#ffffff;fill-opacity:1;fill-rule:nonzero;stroke:#ffffff;stroke-width:3.77953;stroke-linecap:square;stroke-miterlimit:8;stroke-dasharray:none;stroke-opacity:0.991918"
       d="m 579.01758,61.226562 c -5.61597,0.372786 -14.62567,0.200798 -15.15007,7.777345 C 551.359,117.15218 539.89989,165.56541 527.46289,213.73242 514.64376,171.86179 503.35695,129.47779 489.51953,87.945312 c -3.69929,-3.994346 -6.80948,2.029087 -6.83203,5.480469 -16.13572,62.809029 -32.16236,125.660859 -47.10547,188.761719 0.30929,6.10055 8.16568,3.30776 11.82031,2.56641 4.61703,-1.17607 11.51979,-1.30745 11.61907,-7.63095 10.35401,-38.4614 20.09383,-77.08641 30.6407,-115.49601 11.67759,35.70487 22.56797,71.73861 34.56445,107.36524 2.8876,4.71828 8.37211,-0.0245 8.08822,-4.18696 17.85097,-66.51848 35.46322,-133.12225 51.87663,-200.006402 0.13053,-2.967971 -2.7398,-3.91611 -5.17383,-3.572266 z"
       id="path4139"
       transform="scale(0.26458333)" /><path
       style="font-variation-settings:'wght' 700;fill:#ffffff;fill-opacity:1;fill-rule:nonzero;stroke:#ffffff;stroke-width:3.77953;stroke-linecap:square;stroke-miterlimit:8;stroke-dasharray:none;stroke-opacity:0.991918"
       d="m 631.63477,55.117187 c -5.35858,0.990629 -14.70486,-0.956048 -15.13864,6.576699 -15.98885,65.961814 -33.1154,131.658324 -48.21488,197.829554 -2.10301,7.78276 -1.24589,16.87058 3.57031,23.42773 5.61315,3.39593 7.77097,-4.97826 8.59571,-8.92578 18.96294,-71.71035 37.819,-143.46788 55.64843,-215.46289 -0.0986,-2.610888 -2.14046,-3.654754 -4.46093,-3.445313 z"
       id="path4141"
       transform="scale(0.26458333)" /><path
       style="font-variation-settings:'wght' 700;fill:#ffffff;fill-opacity:1;fill-rule:nonzero;stroke:#ffffff;stroke-width:3.77953;stroke-linecap:square;stroke-miterlimit:8;stroke-dasharray:none;stroke-opacity:0.991918"
       d="m 742.63867,41.345703 c -4.88827,0.431025 -12.20061,0.591498 -12.38672,7.138672 -10.91242,40.63158 -20.69576,81.586665 -31.18164,122.308595 -10.10556,-32.09726 -18.37819,-64.89948 -29.66015,-96.623048 -3.98641,-3.743399 -6.60998,2.457053 -6.73636,5.851553 -13.09577,52.988785 -26.06687,106.020695 -38.08396,159.263685 0.44746,6.3338 7.76839,2.19141 11.50782,1.95117 7.46701,-0.26624 6.74477,-9.05886 8.55739,-14.23859 7.52821,-30.5613 14.76126,-61.19422 22.21604,-91.77313 9.93772,28.65788 18.60553,58.05198 28.44922,86.86523 3.25562,4.91935 8.45839,-0.71189 8.19302,-4.85551 15.39566,-57.09277 30.69316,-114.22876 44.95737,-171.611283 0.42056,-3.316291 -3.10662,-4.698786 -5.83203,-4.277344 z"
       id="path4143"
       transform="scale(0.26458333)" /></g><metadata
     id="metadata1139"><rdf:RDF><cc:Work
         rdf:about=""><cc:license
           rdf:resource="http://creativecommons.org/licenses/by-sa/4.0/" /><dc:creator><cc:Agent><dc:title>Hal Brodigan</dc:title></cc:Agent></dc:creator><dc:date>2023-01-28</dc:date><dc:title>Ronin</dc:title></cc:Work><cc:License
         rdf:about="http://creativecommons.org/licenses/by-sa/4.0/"><cc:permits
           rdf:resource="http://creativecommons.org/ns#Reproduction" /><cc:permits
           rdf:resource="http://creativecommons.org/ns#Distribution" /><cc:requires
           rdf:resource="http://creativecommons.org/ns#Notice" /><cc:requires
           rdf:resource="http://creativecommons.org/ns#Attribution" /><cc:permits
           rdf:resource="http://creativecommons.org/ns#DerivativeWorks" /><cc:requires
           rdf:resource="http://creativecommons.org/ns#ShareAlike" /></cc:License></rdf:RDF></metadata></svg>
